<?xml version="1.0" standalone="no"?>
<!DOCTYPE svg PUBLIC "-//W3C//DTD SVG 20010904//EN"
 "http://www.w3.org/TR/2001/REC-SVG-20010904/DTD/svg10.dtd">
<svg version="1.0" xmlns="http://www.w3.org/2000/svg"
 width="1024.000000pt" height="1024.000000pt" viewBox="0 0 1024.000000 1024.000000"
 preserveAspectRatio="xMidYMid meet">
<metadata>
Created by potrace 1.14, written by Peter Selinger 2001-2017
</metadata>
<g transform="translate(0.000000,1024.000000) scale(0.100000,-0.100000)"
fill="#000000" stroke="none">
<path d="M4520 9627 l0 -84 78 5 c42 3 79 8 82 13 3 4 5 38 5 76 l0 68 -82 3
-83 3 0 -84z"/>
<path d="M5138 9552 l-458 -2 0 -80 0 -80 -670 0 -670 0 0 -77 0 -78 74 0 74
1 5 -36 c3 -19 4 -52 1 -72 l-4 -38 155 0 155 0 0 -80 0 -80 -147 -2 c-82 -1
-217 -1 -300 -1 l-153 1 0 -79 0 -79 -72 0 -73 0 3 -75 4 -75 -77 0 -77 0 5
-70 c6 -84 0 -90 -92 -90 l-61 0 0 -81 0 -82 -236 7 -237 8 6 -59 c4 -32 6
-102 7 -155 l0 -98 230 0 230 0 0 -75 0 -75 -152 0 -153 0 3 -149 4 -148 -24
-6 c-12 -3 -49 -4 -81 -2 l-57 4 0 -79 0 -79 -77 -3 -78 -3 -3 -76 -3 -76 55
5 c41 3 62 0 81 -12 22 -15 25 -23 25 -81 l0 -65 -84 0 -85 0 5 -72 c13 -208
13 -206 -2 -219 -8 -7 -44 -13 -79 -13 l-65 -1 0 -72 0 -73 75 0 75 0 1 48 c1
26 0 59 -1 73 -1 26 -1 26 79 28 l81 2 0 -310 0 -311 74 0 73 0 5 -32 c3 -18
6 -162 7 -320 l2 -288 -78 0 -78 0 0 -72 0 -73 -78 3 -78 3 2 -133 c2 -149 0
-209 -7 -192 -5 12 -131 11 -142 -1 -4 -3 -7 -151 -7 -328 l-1 -322 73 2 c42
1 75 -3 79 -9 4 -6 6 -80 5 -165 l-2 -155 48 2 c26 1 63 1 82 1 l33 -1 -3 -79
-4 -80 58 5 c79 7 97 -11 97 -93 l0 -58 71 5 c39 3 72 3 75 1 2 -2 4 -37 4
-78 l0 -74 53 6 c28 4 62 8 75 11 21 4 22 2 22 -72 l0 -77 123 6 c67 4 133 10
146 13 l24 7 -4 -144 -4 -144 70 0 70 0 5 -75 5 -75 73 3 72 2 0 -81 0 -81 70
4 c80 3 80 4 80 -82 0 -38 4 -60 13 -63 7 -2 38 -3 70 0 l57 4 1 -38 c1 -41 7
-91 14 -111 3 -9 22 -11 74 -6 l70 7 3 -79 3 -79 68 4 69 3 -5 -113 c-3 -63
-6 -273 -6 -466 l-1 -353 -135 0 -135 0 0 -77 0 -76 -231 7 c-216 6 -230 5
-228 -11 0 -10 1 -46 0 -80 l-1 -63 -75 0 -75 0 0 -75 0 -75 -75 0 -75 0 0
-77 0 -78 -223 0 -222 0 -3 -77 -3 -78 -154 0 -155 0 0 -64 c0 -99 3 -96 -114
-96 -55 0 -118 -5 -138 -10 -35 -10 -36 -12 -31 -48 3 -23 15 -46 32 -60 l26
-23 -40 -1 c-22 0 -153 -2 -291 -5 l-251 -4 5 -75 c2 -41 1 -74 -4 -73 -5 1
-11 0 -14 -1 -3 -2 -30 -4 -60 -5 -30 -2 -63 -3 -72 -4 -16 -1 -18 -12 -18
-76 l0 -75 -75 0 -75 0 0 -62 c0 -35 -4 -69 -9 -77 -7 -11 -35 -12 -150 -6
-139 7 -141 7 -141 -14 l0 -21 4525 0 c4016 0 4525 2 4525 15 0 12 -16 15 -85
15 l-84 0 -3 77 -3 78 -38 -3 c-21 -2 -56 -1 -77 3 l-40 7 0 74 0 74 -75 0
-75 0 0 78 0 77 -245 -3 -245 -4 0 76 0 76 -160 0 -160 0 0 80 0 80 -160 0
-160 0 0 80 0 80 -160 0 -160 0 0 75 0 75 -155 0 -155 0 0 75 0 75 -80 0 -80
0 0 80 0 80 -165 0 c-150 0 -165 2 -167 18 -1 9 -2 38 -3 65 -1 26 -4 49 -6
52 -3 2 -92 5 -199 6 -107 1 -202 4 -210 8 -20 8 -24 31 -21 121 2 41 4 238 5
437 l1 363 73 0 72 0 1 68 c1 37 1 70 0 75 0 4 32 7 73 7 l75 0 7 45 c3 25 4
58 2 75 l-5 30 56 0 c99 0 101 2 101 79 l0 68 48 -3 c26 -1 59 0 75 3 26 4 27
7 27 68 0 73 3 75 90 75 56 0 58 1 64 31 3 17 6 52 6 76 l0 45 75 -7 75 -7 0
128 c0 70 3 124 7 121 3 -4 11 1 18 10 11 14 32 16 154 14 110 -2 141 1 143
11 0 7 2 42 2 78 l1 65 43 3 c24 2 57 12 74 22 32 19 37 40 41 185 2 64 10 87
30 80 7 -2 38 -6 70 -9 l57 -5 2 65 c1 85 2 88 10 94 4 3 39 5 78 3 l71 -2 -1
97 c0 97 8 244 15 250 2 2 10 0 17 -4 23 -15 51 -19 95 -13 21 3 21 7 22 159
0 154 -1 241 -2 375 0 39 1 110 4 158 3 49 1 91 -3 93 -5 3 -6 10 -3 15 6 9
-12 12 -80 10 -60 -2 -66 6 -66 86 l0 70 -72 2 c-39 1 -73 4 -76 7 -9 9 -29
74 -22 74 3 0 7 14 8 30 l2 30 -73 0 -73 0 -7 46 c-8 59 -8 541 0 572 6 20 12
22 80 22 l74 0 2 308 3 307 45 3 c24 2 59 1 77 -3 l33 -6 0 -68 0 -68 73 -6
c39 -3 73 -4 74 -3 0 0 4 36 8 79 l7 77 -73 0 c-41 0 -80 4 -88 9 -11 7 -13
41 -7 192 3 101 7 234 7 294 l2 110 -86 3 -85 3 4 79 5 79 -75 -6 -76 -6 -1
37 c-1 20 -1 43 -1 51 0 32 3 35 42 35 22 0 40 5 40 10 0 6 17 10 38 10 26 0
33 3 23 9 -8 5 -43 9 -78 7 -73 -2 -73 -2 -73 90 l0 64 -77 -3 -78 -2 1 228 0
227 -78 0 -78 0 -1 33 c-1 17 -2 52 -3 77 l-1 45 -80 5 -80 5 -3 78 -3 78 160
-3 160 -3 3 78 3 77 -82 0 -83 0 0 155 0 155 -75 0 -75 0 0 -122 c0 -68 -3
-139 -6 -159 l-6 -36 -72 5 -72 4 1 -73 0 -74 -82 -3 -83 -3 0 236 0 235 -69
0 c-87 0 -96 9 -87 90 l7 60 -76 0 -75 0 0 81 0 81 -75 -7 -75 -7 0 82 0 81
-62 -2 c-111 -4 -102 19 -96 -231 l6 -218 -27 0 c-14 0 -50 -3 -79 -7 -30 -3
-52 -2 -51 3 1 5 1 42 0 82 l-1 72 -75 0 c-85 0 -89 4 -83 96 l3 49 -70 2
c-38 1 -174 2 -302 2 l-232 1 2 78 2 77 -45 0 c-25 0 -251 -1 -502 -3z m-2672
-2245 l2 -77 -84 0 -84 0 0 81 0 81 83 -4 82 -4 1 -77z m281 -1702 l0 -75 -63
0 -64 0 0 75 0 75 63 0 63 0 1 -75z"/>
</g>
</svg>
